<svg xmlns="http://www.w3.org/2000/svg" xmlns:xlink="http://www.w3.org/1999/xlink" version="1.1" data-diagram-type="DESCRIPTION" style="width:475px;height:1733px;background:#FFFFFF;" width="475px" height="1733px" viewBox="0 0 475 1733" zoomAndPan="magnify" preserveAspectRatio="none" contentStyleType="text/css"><?plantuml 1.2026.8?><defs/><g font-family="sans-serif" lengthAdjust="spacing"><g class="title" data-source-line="1"><text x="10" y="22.995" fill="#000" font-size="14" textLength="448.971" font-weight="700">Parcours d'un mail entrant - Cisco Secure Email Gateway</text></g><!--cluster Cisco Secure Email Gateway / IronPort--><g class="cluster" data-qualified-name="Cisco Secure Email Gateway . IronPort" id="ent0002" data-source-line="10"><rect x="20.485" y="114.136" width="428" height="1494" fill="none" style="stroke:#181818;stroke-width:1;" rx="2.5" ry="2.5"/><text x="83.459" y="129.131" fill="#000" font-size="14" textLength="302.053" font-weight="700">Cisco Secure Email Gateway / IronPort</text></g><!--cluster Receipt - Réception SMTP--><g class="cluster" data-qualified-name="Cisco Secure Email Gateway . IronPort.Receipt - R.ception SMTP" id="ent0004" data-source-line="13"><path d="M46.985,227.136 L250.992,227.136 A3.75,3.75 0 0 1 253.492,229.636 L260.492,249.433 L421.985,249.433 A2.5,2.5 0 0 1 424.485,251.933 L424.485,1277.636 A2.5,2.5 0 0 1 421.985,1280.136 L46.985,1280.136 A2.5,2.5 0 0 1 44.485,1277.636 L44.485,229.636 A2.5,2.5 0 0 1 46.985,227.136" style="stroke:#000;stroke-width:1.5;" fill="none"/><line x1="44.485" y1="249.433" x2="260.492" y2="249.433" style="stroke:#000;stroke-width:1.5;"/><text x="48.485" y="242.131" fill="#000" font-size="14" textLength="203.007" font-weight="700">Receipt - Réception SMTP</text></g><!--cluster Work Queue--><g class="cluster" data-qualified-name="Cisco Secure Email Gateway . IronPort.Work Queue" id="ent0017" data-source-line="28"><path d="M70.985,1304.136 L168.96,1304.136 A3.75,3.75 0 0 1 171.46,1306.636 L178.46,1326.433 L347.985,1326.433 A2.5,2.5 0 0 1 350.485,1328.933 L350.485,1470.636 A2.5,2.5 0 0 1 347.985,1473.136 L70.985,1473.136 A2.5,2.5 0 0 1 68.485,1470.636 L68.485,1306.636 A2.5,2.5 0 0 1 70.985,1304.136" style="stroke:#000;stroke-width:1.5;" fill="none"/><line x1="68.485" y1="1326.433" x2="178.46" y2="1326.433" style="stroke:#000;stroke-width:1.5;"/><text x="72.485" y="1319.131" fill="#000" font-size="14" textLength="96.975" font-weight="700">Work Queue</text></g><!--cluster Delivery--><g class="cluster" data-qualified-name="Cisco Secure Email Gateway . IronPort.Delivery" id="ent0019" data-source-line="32"><path d="M136.985,1497.136 L203.351,1497.136 A3.75,3.75 0 0 1 205.851,1499.636 L212.851,1519.433 L281.985,1519.433 A2.5,2.5 0 0 1 284.485,1521.933 L284.485,1581.636 A2.5,2.5 0 0 1 281.985,1584.136 L136.985,1584.136 A2.5,2.5 0 0 1 134.485,1581.636 L134.485,1499.636 A2.5,2.5 0 0 1 136.985,1497.136" style="stroke:#000;stroke-width:1.5;" fill="none"/><line x1="134.485" y1="1519.433" x2="212.851" y2="1519.433" style="stroke:#000;stroke-width:1.5;"/><text x="138.485" y="1512.131" fill="#000" font-size="14" textLength="65.365" font-weight="700">Delivery</text></g><!--cluster Serveur de messagerie--><g class="cluster" data-qualified-name="Serveur de messagerie" id="ent0021" data-source-line="37"><rect x="100.485" y="1632.136" width="218" height="87" fill="none" style="stroke:#181818;stroke-width:1;" rx="2.5" ry="2.5"/><text x="118.41" y="1647.131" fill="#000" font-size="14" textLength="182.15" font-weight="700">Serveur de messagerie</text></g><!--entity Listener--><g class="entity" data-qualified-name="Cisco Secure Email Gateway . IronPort.Listener" id="ent0003" data-source-line="11"><rect x="273.485" y="149.136" width="122.457" height="52.594" fill="#F1F1F1" style="stroke:#181818;stroke-width:0.5;" rx="2.5" ry="2.5"/><text x="283.485" y="172.131" fill="#000" font-size="14" textLength="102.457">Public Listener</text><text x="283.485" y="188.428" fill="#000" font-size="14" textLength="37.96">SMTP</text></g><!--entity HAT--><g class="entity" data-qualified-name="Cisco Secure Email Gateway . IronPort.Receipt - R.ception SMTP.HAT" id="ent0005" data-source-line="14"><rect x="260.985" y="262.136" width="147.47" height="52.594" fill="#F1F1F1" style="stroke:#181818;stroke-width:0.5;" rx="2.5" ry="2.5"/><text x="270.985" y="285.131" fill="#000" font-size="14" textLength="28.656">HAT</text><text x="270.985" y="301.428" fill="#000" font-size="14" textLength="127.47">Host Access Table</text></g><!--entity SG--><g class="entity" data-qualified-name="Cisco Secure Email Gateway . IronPort.Receipt - R.ception SMTP.SG" id="ent0006" data-source-line="15"><rect x="132.985" y="375.136" width="220.724" height="52.594" fill="#F1F1F1" style="stroke:#181818;stroke-width:0.5;" rx="2.5" ry="2.5"/><text x="142.985" y="398.131" fill="#000" font-size="14" textLength="97.009">Sender Group</text><text x="142.985" y="414.428" fill="#000" font-size="14" textLength="200.724">Classification de l'hôte SMTP</text></g><!--entity REP--><g class="entity" data-qualified-name="Cisco Secure Email Gateway . IronPort.Receipt - R.ception SMTP.REP" id="ent0007" data-source-line="16"><rect x="60.985" y="270.636" width="164.505" height="36.297" fill="#F1F1F1" style="stroke:#181818;stroke-width:0.5;" rx="2.5" ry="2.5"/><text x="70.985" y="293.631" fill="#000" font-size="14" textLength="144.505">Talos / IP Reputation</text></g><!--entity MFP--><g class="entity" data-qualified-name="Cisco Secure Email Gateway . IronPort.Receipt - R.ception SMTP.MFP" id="ent0008" data-source-line="17"><rect x="136.985" y="488.136" width="213.047" height="52.594" fill="#F1F1F1" style="stroke:#181818;stroke-width:0.5;" rx="2.5" ry="2.5"/><text x="146.985" y="511.131" fill="#000" font-size="14" textLength="110.065">Mail Flow Policy</text><text x="146.985" y="527.428" fill="#000" font-size="14" textLength="193.047">Traitement de la connexion</text></g><!--entity MAILFROM--><g class="entity" data-qualified-name="Cisco Secure Email Gateway . IronPort.Receipt - R.ception SMTP.MAILFROM" id="ent0009" data-source-line="18"><rect x="193.985" y="601.136" width="98.914" height="36.297" fill="#F1F1F1" style="stroke:#181818;stroke-width:0.5;" rx="2.5" ry="2.5"/><text x="203.985" y="624.131" fill="#000" font-size="14" textLength="78.914">MAIL FROM</text></g><!--entity SPF--><g class="entity" data-qualified-name="Cisco Secure Email Gateway . IronPort.Receipt - R.ception SMTP.SPF" id="ent0010" data-source-line="19"><rect x="116.985" y="801.636" width="45.382" height="36.297" fill="#F1F1F1" style="stroke:#181818;stroke-width:0.5;" rx="2.5" ry="2.5"/><text x="126.985" y="824.631" fill="#000" font-size="14" textLength="25.382">SPF</text></g><!--entity RCPT--><g class="entity" data-qualified-name="Cisco Secure Email Gateway . IronPort.Receipt - R.ception SMTP.RCPT" id="ent0011" data-source-line="20"><rect x="228.985" y="697.136" width="80.519" height="36.297" fill="#F1F1F1" style="stroke:#181818;stroke-width:0.5;" rx="2.5" ry="2.5"/><text x="238.985" y="720.131" fill="#000" font-size="14" textLength="60.519">RCPT TO</text></g><!--entity RAT--><g class="entity" data-qualified-name="Cisco Secure Email Gateway . IronPort.Receipt - R.ception SMTP.RAT" id="ent0012" data-source-line="21"><rect x="196.985" y="793.136" width="181.273" height="52.594" fill="#F1F1F1" style="stroke:#181818;stroke-width:0.5;" rx="2.5" ry="2.5"/><text x="206.985" y="816.131" fill="#000" font-size="14" textLength="27.856">RAT</text><text x="206.985" y="832.428" fill="#000" font-size="14" textLength="161.273">Recipient Access Table</text></g><!--entity LDAP--><g class="entity" data-qualified-name="Cisco Secure Email Gateway . IronPort.Receipt - R.ception SMTP.LDAP" id="ent0013" data-source-line="22"><rect x="220.985" y="906.136" width="126.729" height="52.594" fill="#F1F1F1" style="stroke:#181818;stroke-width:0.5;" rx="2.5" ry="2.5"/><text x="230.985" y="929.131" fill="#000" font-size="14" textLength="106.729">LDAP Recipient</text><text x="230.985" y="945.428" fill="#000" font-size="14" textLength="81.724">Acceptance</text></g><!--entity DATA--><g class="entity" data-qualified-name="Cisco Secure Email Gateway . IronPort.Receipt - R.ception SMTP.DATA" id="ent0014" data-source-line="23"><rect x="189.485" y="1019.136" width="179.934" height="52.594" fill="#F1F1F1" style="stroke:#181818;stroke-width:0.5;" rx="2.5" ry="2.5"/><text x="199.485" y="1042.131" fill="#000" font-size="14" textLength="38.486">DATA</text><text x="199.485" y="1058.428" fill="#000" font-size="14" textLength="159.934">Réception du message</text></g><!--entity DKIM--><g class="entity" data-qualified-name="Cisco Secure Email Gateway . IronPort.Receipt - R.ception SMTP.DKIM" id="ent0015" data-source-line="24"><rect x="208.485" y="1132.136" width="56.169" height="36.297" fill="#F1F1F1" style="stroke:#181818;stroke-width:0.5;" rx="2.5" ry="2.5"/><text x="218.485" y="1155.131" fill="#000" font-size="14" textLength="36.169">DKIM</text></g><!--entity DMARC--><g class="entity" data-qualified-name="Cisco Secure Email Gateway . IronPort.Receipt - R.ception SMTP.DMARC" id="ent0016" data-source-line="25"><rect x="173.485" y="1228.136" width="71.939" height="36.297" fill="#F1F1F1" style="stroke:#181818;stroke-width:0.5;" rx="2.5" ry="2.5"/><text x="183.485" y="1251.131" fill="#000" font-size="14" textLength="51.939">DMARC</text></g><!--entity WQ--><g class="entity" data-qualified-name="Cisco Secure Email Gateway . IronPort.Work Queue.WQ" id="ent0018" data-source-line="29"><rect x="84.985" y="1339.136" width="249.489" height="117.781" fill="#F1F1F1" style="stroke:#181818;stroke-width:0.5;" rx="2.5" ry="2.5"/><text x="94.985" y="1362.131" fill="#000" font-size="14" textLength="167.07">Traitement du message</text><text x="94.985" y="1378.428" fill="#000" font-size="14"> </text><text x="94.985" y="1394.725" fill="#000" font-size="14" textLength="207.58">Message Filters / Mail Policies</text><text x="94.985" y="1411.022" fill="#000" font-size="14" textLength="154.759">Anti-Spam / Anti-Virus</text><text x="94.985" y="1427.319" fill="#000" font-size="14" textLength="177.181">File Reputation / Analysis</text><text x="94.985" y="1443.615" fill="#000" font-size="14" textLength="229.489">Content Filters / Outbreak Filters</text></g><!--entity ROUTING--><g class="entity" data-qualified-name="Cisco Secure Email Gateway . IronPort.Delivery.ROUTING" id="ent0020" data-source-line="33"><rect x="150.985" y="1532.136" width="116.715" height="36.297" fill="#F1F1F1" style="stroke:#181818;stroke-width:0.5;" rx="2.5" ry="2.5"/><text x="160.985" y="1555.131" fill="#000" font-size="14" textLength="96.715">SMTP Routing</text></g><!--entity MAILSERVER--><g class="entity" data-qualified-name="Serveur de messagerie.MAILSERVER" id="ent0022" data-source-line="38"><rect x="115.985" y="1667.136" width="187.036" height="36.297" fill="#F1F1F1" style="stroke:#181818;stroke-width:0.5;" rx="2.5" ry="2.5"/><text x="125.985" y="1690.131" fill="#000" font-size="14" textLength="167.036">Exchange / MTA interne</text></g><!--entity Internet--><g class="entity" data-qualified-name="Internet" id="ent0001" data-source-line="8"><path d="M301.257,52.017 C304.353,46.982 308.281,46.717 312.089,51.207 C315.197,45.035 319.541,45.136 323.783,50.007 C326.699,44.684 330.967,44.207 334.547,49.322 C338.295,44.398 342.152,43.297 346.139,49.063 C351.183,43.8 355.414,43.948 358.256,51.195 C362.314,46.027 366.971,46.302 370.658,51.633 C377.996,54.472 379.733,61.829 373.418,67.104 C379.223,73.506 379.068,78.589 371.072,82.947 C369.118,89.108 363.584,89.516 359.836,84.802 C356.896,93.075 352.428,94.117 346.305,87.743 C345.372,93.46 340.679,95.642 335.791,92.37 C331.193,96.568 325.91,96.028 323.947,89.468 C317.428,94.304 314.203,91.67 311.995,84.991 C307.787,89.447 302.72,88.979 300.048,83.198 C290.39,82.225 287.169,75.002 293.765,67.517 C287.648,58.534 290.741,52.959 301.257,52.017" style="stroke:#181818;stroke-width:0.5;" fill="#F1F1F1"/><text x="306.485" y="71.131" fill="#000" font-size="14" textLength="55.836">Internet</text></g><!--link Internet to Listener--><g class="link" data-entity-1="ent0001" data-entity-2="ent0003" id="lnk23" data-source-line="41" data-link-type="dependency"><path d="M334.485,89.356 C334.485,106.806 334.485,125.746 334.485,143.976" style="stroke:#181818;stroke-width:1;" fill="none" id="Internet-to-Listener"/><polygon points="334.485,148.976,338.485,139.976,334.485,143.976,330.485,139.976,334.485,148.976" fill="#181818" style="stroke:#181818;stroke-width:1;stroke-linejoin:miter;stroke-miterlimit:10;"/></g><!--link Listener to HAT--><g class="link" data-entity-1="ent0003" data-entity-2="ent0005" id="lnk24" data-source-line="42" data-link-type="dependency"><path d="M334.485,202.416 C334.485,220.426 334.485,239.076 334.485,257.046" style="stroke:#181818;stroke-width:1;" fill="none" id="Listener-to-HAT"/><polygon points="334.485,262.046,338.485,253.046,334.485,257.046,330.485,253.046,334.485,262.046" fill="#181818" style="stroke:#181818;stroke-width:1;stroke-linejoin:miter;stroke-miterlimit:10;"/></g><!--link HAT to SG--><g class="link" data-entity-1="ent0005" data-entity-2="ent0006" id="lnk25" data-source-line="43" data-link-type="dependency"><path d="M307.485,315.416 C307.485,333.426 307.485,352.076 307.485,370.046" style="stroke:#181818;stroke-width:1;" fill="none" id="HAT-to-SG"/><polygon points="307.485,375.046,311.485,366.046,307.485,370.046,303.485,366.046,307.485,375.046" fill="#181818" style="stroke:#181818;stroke-width:1;stroke-linejoin:miter;stroke-miterlimit:10;"/></g><!--link REP to SG--><g class="link" data-entity-1="ent0007" data-entity-2="ent0006" id="lnk26" data-source-line="44" data-link-type="dependency"><path d="M179.485,306.796 C179.485,325.256 179.485,349.076 179.485,370.096" style="stroke:#181818;stroke-width:1;" fill="none" id="REP-to-SG"/><polygon points="179.485,375.096,183.485,366.096,179.485,370.096,175.485,366.096,179.485,375.096" fill="#181818" style="stroke:#181818;stroke-width:1;stroke-linejoin:miter;stroke-miterlimit:10;"/></g><!--link SG to MFP--><g class="link" data-entity-1="ent0006" data-entity-2="ent0008" id="lnk27" data-source-line="45" data-link-type="dependency"><path d="M243.485,428.416 C243.485,446.426 243.485,465.076 243.485,483.046" style="stroke:#181818;stroke-width:1;" fill="none" id="SG-to-MFP"/><polygon points="243.485,488.046,247.485,479.046,243.485,483.046,239.485,479.046,243.485,488.046" fill="#181818" style="stroke:#181818;stroke-width:1;stroke-linejoin:miter;stroke-miterlimit:10;"/></g><!--link MFP to MAILFROM--><g class="link" data-entity-1="ent0008" data-entity-2="ent0009" id="lnk28" data-source-line="46" data-link-type="dependency"><path d="M243.485,541.276 C243.485,560.026 243.485,579.606 243.485,596.096" style="stroke:#181818;stroke-width:1;" fill="none" id="MFP-to-MAILFROM"/><polygon points="243.485,601.096,247.485,592.096,243.485,596.096,239.485,592.096,243.485,601.096" fill="#181818" style="stroke:#181818;stroke-width:1;stroke-linejoin:miter;stroke-miterlimit:10;"/></g><!--link MAILFROM to RCPT--><g class="link" data-entity-1="ent0009" data-entity-2="ent0011" id="lnk29" data-source-line="47" data-link-type="dependency"><path d="M260.985,637.196 C260.985,654.246 260.985,674.696 260.985,691.836" style="stroke:#181818;stroke-width:1;" fill="none" id="MAILFROM-to-RCPT"/><polygon points="260.985,696.836,264.985,687.836,260.985,691.836,256.985,687.836,260.985,696.836" fill="#181818" style="stroke:#181818;stroke-width:1;stroke-linejoin:miter;stroke-miterlimit:10;"/></g><!--link MAILFROM to SPF--><g class="link" data-entity-1="ent0009" data-entity-2="ent0010" id="lnk30" data-source-line="48" data-link-type="dependency"><path d="M193.735,619.136 C171.185,619.136 149.485,619.136 149.485,619.136 C149.485,619.136 149.485,747.136 149.485,796.486" style="stroke:#181818;stroke-width:1;" fill="none" id="MAILFROM-to-SPF"/><polygon points="149.485,801.486,153.485,792.486,149.485,796.486,145.485,792.486,149.485,801.486" fill="#181818" style="stroke:#181818;stroke-width:1;stroke-linejoin:miter;stroke-miterlimit:10;"/></g><!--link RCPT to RAT--><g class="link" data-entity-1="ent0011" data-entity-2="ent0012" id="lnk31" data-source-line="49" data-link-type="dependency"><path d="M269.485,733.336 C269.485,749.826 269.485,769.336 269.485,788.026" style="stroke:#181818;stroke-width:1;" fill="none" id="RCPT-to-RAT"/><polygon points="269.485,793.026,273.485,784.026,269.485,788.026,265.485,784.026,269.485,793.026" fill="#181818" style="stroke:#181818;stroke-width:1;stroke-linejoin:miter;stroke-miterlimit:10;"/></g><!--link RAT to LDAP--><g class="link" data-entity-1="ent0012" data-entity-2="ent0013" id="lnk32" data-source-line="50" data-link-type="dependency"><path d="M284.485,846.416 C284.485,864.426 284.485,883.076 284.485,901.046" style="stroke:#181818;stroke-width:1;" fill="none" id="RAT-to-LDAP"/><polygon points="284.485,906.046,288.485,897.046,284.485,901.046,280.485,897.046,284.485,906.046" fill="#181818" style="stroke:#181818;stroke-width:1;stroke-linejoin:miter;stroke-miterlimit:10;"/></g><!--link LDAP to DATA--><g class="link" data-entity-1="ent0013" data-entity-2="ent0014" id="lnk33" data-source-line="51" data-link-type="dependency"><path d="M284.485,959.416 C284.485,977.426 284.485,996.076 284.485,1014.046" style="stroke:#181818;stroke-width:1;" fill="none" id="LDAP-to-DATA"/><polygon points="284.485,1019.046,288.485,1010.046,284.485,1014.046,280.485,1010.046,284.485,1019.046" fill="#181818" style="stroke:#181818;stroke-width:1;stroke-linejoin:miter;stroke-miterlimit:10;"/></g><!--link DATA to DKIM--><g class="link" data-entity-1="ent0014" data-entity-2="ent0015" id="lnk34" data-source-line="52" data-link-type="dependency"><path d="M236.485,1072.276 C236.485,1091.026 236.485,1110.606 236.485,1127.096" style="stroke:#181818;stroke-width:1;" fill="none" id="DATA-to-DKIM"/><polygon points="236.485,1132.096,240.485,1123.096,236.485,1127.096,232.485,1123.096,236.485,1132.096" fill="#181818" style="stroke:#181818;stroke-width:1;stroke-linejoin:miter;stroke-miterlimit:10;"/></g><!--link SPF to DMARC--><g class="link" data-entity-1="ent0010" data-entity-2="ent0016" id="lnk35" data-source-line="53" data-link-type="dependency"><path d="M162.455,820.136 C172.255,820.136 181.485,820.136 181.485,820.136 C181.485,820.136 181.485,1142.016 181.485,1223.106" style="stroke:#181818;stroke-width:1;" fill="none" id="SPF-to-DMARC"/><polygon points="181.485,1228.106,185.485,1219.106,181.485,1223.106,177.485,1219.106,181.485,1228.106" fill="#181818" style="stroke:#181818;stroke-width:1;stroke-linejoin:miter;stroke-miterlimit:10;"/></g><!--link DKIM to DMARC--><g class="link" data-entity-1="ent0015" data-entity-2="ent0016" id="lnk36" data-source-line="54" data-link-type="dependency"><path d="M226.985,1168.196 C226.985,1185.246 226.985,1205.696 226.985,1222.836" style="stroke:#181818;stroke-width:1;" fill="none" id="DKIM-to-DMARC"/><polygon points="226.985,1227.836,230.985,1218.836,226.985,1222.836,222.985,1218.836,226.985,1227.836" fill="#181818" style="stroke:#181818;stroke-width:1;stroke-linejoin:miter;stroke-miterlimit:10;"/></g><!--link DMARC to WQ--><g class="link" data-entity-1="ent0016" data-entity-2="ent0018" id="lnk37" data-source-line="55" data-link-type="dependency"><path d="M209.485,1264.166 C209.485,1282.566 209.485,1307.136 209.485,1333.816" style="stroke:#181818;stroke-width:1;" fill="none" id="DMARC-to-WQ"/><polygon points="209.485,1338.816,213.485,1329.816,209.485,1333.816,205.485,1329.816,209.485,1338.816" fill="#181818" style="stroke:#181818;stroke-width:1;stroke-linejoin:miter;stroke-miterlimit:10;"/></g><!--link WQ to ROUTING--><g class="link" data-entity-1="ent0018" data-entity-2="ent0020" id="lnk38" data-source-line="56" data-link-type="dependency"><path d="M209.485,1457.336 C209.485,1484.016 209.485,1508.596 209.485,1527.026" style="stroke:#181818;stroke-width:1;" fill="none" id="WQ-to-ROUTING"/><polygon points="209.485,1532.026,213.485,1523.026,209.485,1527.026,205.485,1523.026,209.485,1532.026" fill="#181818" style="stroke:#181818;stroke-width:1;stroke-linejoin:miter;stroke-miterlimit:10;"/></g><!--link ROUTING to MAILSERVER--><g class="link" data-entity-1="ent0020" data-entity-2="ent0022" id="lnk39" data-source-line="57" data-link-type="dependency"><path d="M209.485,1568.346 C209.485,1594.106 209.485,1635.946 209.485,1661.786" style="stroke:#181818;stroke-width:1;" fill="none" id="ROUTING-to-MAILSERVER"/><polygon points="209.485,1666.786,213.485,1657.786,209.485,1661.786,205.485,1657.786,209.485,1666.786" fill="#181818" style="stroke:#181818;stroke-width:1;stroke-linejoin:miter;stroke-miterlimit:10;"/></g><?plantuml-src TLJDJkCm4BxdAKQzSAfuWvMYqfOAkWr95YwzkEv0hRfsP3j0jUA1zhvlm8ljZ9sKmePAIUV_zvi45JH28PoqhVEmlMWD78JIW2OuOGACOQAyj52XR1t2D2hd8k2BE6QPtolJ22SEu7TYQr-KUO97eJsUQRGo68uDWdLXPyyKqXuQQoXH5OvKX4CPX7dIc0NRGB2miI7O0smLQvGrMIQrRRSmMfY0ZeAEG7ZecImx1O3HzpN39IoSDGKLCuBV6T3lL0UCYdQZbOHRvGCQT6jJBUiYfkb5MNHfXDoB9qfKeaJLy9ZAzpyI6wuJabCA_YN1TLwlpRNr0N8fqNkenKPZp42g8OyApHOTp9rjcxMPQE6zUbHIn4nR17snU_yR44wLLlEXCBNGrdFp1PJOj27wH_joMWmvB7beCsrVeB0qa-FQr4weW0VMSbv1riRWQnzdEHkEaozkOLQkbic8E6O6EorcgO5YDgGk9qKDzIhLJFIW3O-NTg8QnVn_Cow7PtnxbVDOEhUrOR-6i2IJ5wk7tAxoEgTq7ulVjd2WX8ICwCVwGR-RHPe64uC6oxoS90kceidR5-GzMBU7knPR_0Pgv-iwrRKsQxDC9CoKfjDXKCHTnpKhzDI-2MfSDNIYbn3fU-LQafC3dg4dQeK-UaMwYQKxf5GVGLTjs3WK-ruK-tcu6spc2hLwHdVyfXN6DfIs3VHzINjS_QeNF-TThBTFjr-XUyRMCKQxfft2WLkVlieTkI3tN-UWqdVaXD9gMjvFIuxTVs5WFFxnyHteYIZbswKdqdH_T58zMSqZnST1JwBx6-Y9A8sG_YJXEuYWZshAK7OP8XuZPfcBAEDNuXXIv9cOY1uMdRFyZZmju-4kHU_csVsVoko6y0y0?></g></svg>