<svg xmlns="http://www.w3.org/2000/svg" xmlns:xlink="http://www.w3.org/1999/xlink" version="1.1" data-diagram-type="DESCRIPTION" style="width:1827px;height:163px;background:#FFFFFF;" width="1827px" height="163px" viewBox="0 0 1827 163" zoomAndPan="magnify" preserveAspectRatio="none" contentStyleType="text/css"><?plantuml 1.2026.8?><defs/><g font-family="sans-serif" lengthAdjust="spacing"><g class="title" data-source-line="1"><text x="756.882" y="22.995" fill="#000" font-size="14" textLength="306.236" font-weight="700">HAT et RAT - Deux contrôles différents</text></g><!--cluster Cisco Secure Email Gateway--><g class="cluster" data-qualified-name="Cisco Secure Email Gateway" id="ent0002" data-source-line="10"><rect x="221" y="44.297" width="1592" height="105" fill="none" style="stroke:#181818;stroke-width:1;" rx="2.5" ry="2.5"/><text x="905.991" y="59.292" fill="#000" font-size="14" textLength="222.018" font-weight="700">Cisco Secure Email Gateway</text></g><!--entity Listener--><g class="entity" data-qualified-name="Cisco Secure Email Gateway.Listener" id="ent0003" data-source-line="11"><rect x="237" y="88.297" width="122.457" height="36.297" fill="#F1F1F1" style="stroke:#181818;stroke-width:0.5;" rx="2.5" ry="2.5"/><text x="247" y="111.292" fill="#000" font-size="14" textLength="102.457">Public Listener</text></g><!--entity HAT--><g class="entity" data-qualified-name="Cisco Secure Email Gateway.HAT" id="ent0004" data-source-line="12"><rect x="419" y="79.797" width="144.893" height="52.594" fill="#F1F1F1" style="stroke:#181818;stroke-width:0.5;" rx="2.5" ry="2.5"/><text x="429" y="102.792" fill="#000" font-size="14" textLength="28.656">HAT</text><text x="429" y="119.089" fill="#000" font-size="14" textLength="124.893">Qui se connecte ?</text></g><!--entity SG--><g class="entity" data-qualified-name="Cisco Secure Email Gateway.SG" id="ent0005" data-source-line="13"><rect x="624" y="79.797" width="185.163" height="52.594" fill="#F1F1F1" style="stroke:#181818;stroke-width:0.5;" rx="2.5" ry="2.5"/><text x="634" y="102.792" fill="#000" font-size="14" textLength="97.009">Sender Group</text><text x="634" y="119.089" fill="#000" font-size="14" textLength="165.163">Dans quelle catégorie ?</text></g><!--entity MFP--><g class="entity" data-qualified-name="Cisco Secure Email Gateway.MFP" id="ent0006" data-source-line="14"><rect x="869" y="79.797" width="212.924" height="52.594" fill="#F1F1F1" style="stroke:#181818;stroke-width:0.5;" rx="2.5" ry="2.5"/><text x="879" y="102.792" fill="#000" font-size="14" textLength="110.065">Mail Flow Policy</text><text x="879" y="119.089" fill="#000" font-size="14" textLength="192.924">Quelle politique appliquer ?</text></g><!--entity RAT--><g class="entity" data-qualified-name="Cisco Secure Email Gateway.RAT" id="ent0007" data-source-line="15"><rect x="1142" y="79.797" width="180.856" height="52.594" fill="#F1F1F1" style="stroke:#181818;stroke-width:0.5;" rx="2.5" ry="2.5"/><text x="1152" y="102.792" fill="#000" font-size="14" textLength="27.856">RAT</text><text x="1152" y="119.089" fill="#000" font-size="14" textLength="160.856">Destination acceptée ?</text></g><!--entity LDAP--><g class="entity" data-qualified-name="Cisco Secure Email Gateway.LDAP" id="ent0008" data-source-line="16"><rect x="1383" y="79.797" width="212.903" height="52.594" fill="#F1F1F1" style="stroke:#181818;stroke-width:0.5;" rx="2.5" ry="2.5"/><text x="1393" y="102.792" fill="#000" font-size="14" textLength="192.903">LDAP Recipient Acceptance</text><text x="1393" y="119.089" fill="#000" font-size="14" textLength="163.331">Le destinataire existe ?</text></g><!--entity ACCEPT--><g class="entity" data-qualified-name="Cisco Secure Email Gateway.ACCEPT" id="ent0009" data-source-line="17"><rect x="1656" y="88.297" width="141.386" height="36.297" fill="#F1F1F1" style="stroke:#181818;stroke-width:0.5;" rx="2.5" ry="2.5"/><text x="1666" y="111.292" fill="#000" font-size="14" textLength="121.386">Message accepté</text></g><!--entity Sender--><g class="entity" data-qualified-name="Sender" id="ent0001" data-source-line="8"><rect x="7" y="79.797" width="170.145" height="52.594" fill="#F1F1F1" style="stroke:#181818;stroke-width:0.5;" rx="2.5" ry="2.5"/><text x="17" y="102.792" fill="#000" font-size="14" textLength="150.145">Serveur SMTP distant</text><text x="17" y="119.089" fill="#000" font-size="14" textLength="93.516">203.0.113.25</text></g><!--link Sender to Listener--><g class="link" data-entity-1="ent0001" data-entity-2="ent0003" id="lnk10" data-source-line="20" data-link-type="dependency"><path d="M177.28,106.297 C197.31,106.297 213.27,106.297 231.99,106.297" style="stroke:#181818;stroke-width:1;" fill="none" id="Sender-to-Listener"/><polygon points="236.99,106.297,227.99,102.297,231.99,106.297,227.99,110.297,236.99,106.297" fill="#181818" style="stroke:#181818;stroke-width:1;stroke-linejoin:miter;stroke-miterlimit:10;"/><text x="208.13" y="115.114" fill="#000" font-size="13" textLength="108.386">Connexion SMTP</text></g><!--link Listener to HAT--><g class="link" data-entity-1="ent0003" data-entity-2="ent0004" id="lnk11" data-source-line="21" data-link-type="dependency"><path d="M359.22,106.297 C378.16,106.297 394.2,106.297 413.83,106.297" style="stroke:#181818;stroke-width:1;" fill="none" id="Listener-to-HAT"/><polygon points="418.83,106.297,409.83,102.297,413.83,106.297,409.83,110.297,418.83,106.297" fill="#181818" style="stroke:#181818;stroke-width:1;stroke-linejoin:miter;stroke-miterlimit:10;"/></g><!--link HAT to SG--><g class="link" data-entity-1="ent0004" data-entity-2="ent0005" id="lnk12" data-source-line="22" data-link-type="dependency"><path d="M564.24,106.297 C583.24,106.297 598.98,106.297 618.87,106.297" style="stroke:#181818;stroke-width:1;" fill="none" id="HAT-to-SG"/><polygon points="623.87,106.297,614.87,102.297,618.87,106.297,614.87,110.297,623.87,106.297" fill="#181818" style="stroke:#181818;stroke-width:1;stroke-linejoin:miter;stroke-miterlimit:10;"/></g><!--link SG to MFP--><g class="link" data-entity-1="ent0005" data-entity-2="ent0006" id="lnk13" data-source-line="23" data-link-type="dependency"><path d="M809.27,106.297 C828.58,106.297 844.07,106.297 863.83,106.297" style="stroke:#181818;stroke-width:1;" fill="none" id="SG-to-MFP"/><polygon points="868.83,106.297,859.83,102.297,863.83,106.297,859.83,110.297,868.83,106.297" fill="#181818" style="stroke:#181818;stroke-width:1;stroke-linejoin:miter;stroke-miterlimit:10;"/></g><!--link MFP to RAT--><g class="link" data-entity-1="ent0006" data-entity-2="ent0007" id="lnk14" data-source-line="24" data-link-type="dependency"><path d="M1082.26,106.297 C1101.98,106.297 1117.4,106.297 1136.6,106.297" style="stroke:#181818;stroke-width:1;" fill="none" id="MFP-to-RAT"/><polygon points="1141.6,106.297,1132.6,102.297,1136.6,106.297,1132.6,110.297,1141.6,106.297" fill="#181818" style="stroke:#181818;stroke-width:1;stroke-linejoin:miter;stroke-miterlimit:10;"/><text x="1054.93" y="119.364" fill="#000" font-size="13" textLength="56.196">RCPT TO</text></g><!--link RAT to LDAP--><g class="link" data-entity-1="ent0007" data-entity-2="ent0008" id="lnk15" data-source-line="25" data-link-type="dependency"><path d="M1323.11,106.297 C1342.47,106.297 1358.1,106.297 1378,106.297" style="stroke:#181818;stroke-width:1;" fill="none" id="RAT-to-LDAP"/><polygon points="1383,106.297,1374,102.297,1378,106.297,1374,110.297,1383,106.297" fill="#181818" style="stroke:#181818;stroke-width:1;stroke-linejoin:miter;stroke-miterlimit:10;"/></g><!--link LDAP to ACCEPT--><g class="link" data-entity-1="ent0008" data-entity-2="ent0009" id="lnk16" data-source-line="26" data-link-type="dependency"><path d="M1596.21,106.297 C1616.36,106.297 1631.97,106.297 1650.68,106.297" style="stroke:#181818;stroke-width:1;" fill="none" id="LDAP-to-ACCEPT"/><polygon points="1655.68,106.297,1646.68,102.297,1650.68,106.297,1646.68,110.297,1655.68,106.297" fill="#181818" style="stroke:#181818;stroke-width:1;stroke-linejoin:miter;stroke-miterlimit:10;"/></g><?plantuml-src PLBBRjim4BppAnQ-syW3kUJGmf0Jvs0ZYgIZBoozbedI94DIiOsY7vHx_y0_rbrM5XnNWA2bPcTsE6JIoI2yJ1l011LznZ33xW3AsHHEVmn6MElDvlGPqAOeHFofhPT1xY1kvThjjMrX8qt42yHeY-de4Ln8MtS1ABVppf9GdOuqDQ1AqhO6XS5DWkGWw7QRQ20ZsbaXXXOOrHW-i0jGBvkIMYBzJojxTtC_kPdStjvFxXv682FKQDSOlZ0B7PKZG7K1uMadjO6vJBYNnn7y4a3FO0n6PVV3Q0KB6e0MGzOyBtBlXJ35jh9ldOQ879Wb1E5xfX1qtVtF6So3w_pApgIDyDwX8KZ9TFfiNT1dTZs_9Y_PzRDnUoWT-JlotCprj4oQX41wRxW8lSZokRnMgTZm36FILdB089L2JyFFWwl_RIzcqn8gLDfh3cYQ6T8gNDa5mheNatHcW0SEgfTYtdMuIunHjZYCpOtJedWg6_5RY3wXyVZR43ayGi797jWj7xqO46xZcFdoSasXrVDSySxfpJNVwKUeYhA1vbLKVMysbtV6gzx1Nm00?></g></svg>